<svg id="facebook-icon" xmlns="http://www.w3.org/2000/svg" width="32.386" height="32.386" viewBox="0 0 32.386 32.386">
  <path id="Path_2017" data-name="Path 2017" d="M28.337,0H4.048A4.052,4.052,0,0,0,0,4.048V28.337a4.052,4.052,0,0,0,4.048,4.048H28.337a4.052,4.052,0,0,0,4.048-4.048V4.048A4.052,4.052,0,0,0,28.337,0Z" fill="#1976d2"/>
  <path id="Path_2018" data-name="Path 2018" d="M207.181,106.12h-5.06v-4.048c0-1.117.907-1.012,2.024-1.012h2.024V96h-4.048a6.072,6.072,0,0,0-6.072,6.072v4.048H192v5.06h4.048v11.133h6.072V111.181h3.036Z" transform="translate(-179.855 -89.928)" fill="#fafafa"/>
</svg>
