<svg xmlns="http://www.w3.org/2000/svg" width="12.138" height="12.139" viewBox="0 0 12.138 12.139">
  <path id="Home" d="M12.312,5.279h0L7.359.327a1.117,1.117,0,0,0-1.58,0L.829,5.276l-.005.005a1.117,1.117,0,0,0,.744,1.9l.035,0h.2v3.644a1.309,1.309,0,0,0,1.308,1.308H5.045a.356.356,0,0,0,.356-.356V8.926a.6.6,0,0,1,.6-.6H7.14a.6.6,0,0,1,.6.6v2.857a.356.356,0,0,0,.356.356H10.03a1.309,1.309,0,0,0,1.308-1.308V7.187h.183a1.118,1.118,0,0,0,.791-1.907Zm-.5,1.077a.4.4,0,0,1-.287.119h-.539a.356.356,0,0,0-.356.356v4a.6.6,0,0,1-.6.6H8.448v-2.5A1.309,1.309,0,0,0,7.14,7.618H6A1.31,1.31,0,0,0,4.69,8.926v2.5H3.108a.6.6,0,0,1-.6-.6v-4a.356.356,0,0,0-.356-.356H1.609a.406.406,0,0,1-.28-.693h0L6.282.83a.406.406,0,0,1,.574,0L11.807,5.78l0,0a.407.407,0,0,1,0,.574Zm0,0" transform="translate(-0.5 0.001)" fill="#fff"/>
</svg>
