<svg xmlns="http://www.w3.org/2000/svg" xmlns:xlink="http://www.w3.org/1999/xlink" width="24" height="24" viewBox="0 0 24 24">
  <defs>
    <style>
      .cls-1 {
        fill: none;
      }

      .cls-2 {
        clip-path: url(#clip-path);
      }

      .cls-3 {
        fill: #fff;
      }
    </style>
    <clipPath id="clip-path">
      <rect class="cls-1" width="24" height="24"/>
    </clipPath>
  </defs>
  <g id="Icon_Share_Sharp" data-name="Icon / Share / Sharp" class="cls-2">
    <rect id="Box" class="cls-1" width="24" height="24"/>
    <path id="Path_412" data-name="Path 412" class="cls-3" d="M827-1401.92a2.912,2.912,0,0,0-1.96.77l-7.13-4.15a3.27,3.27,0,0,0,.09-.7,3.27,3.27,0,0,0-.09-.7l7.05-4.11a2.987,2.987,0,0,0,2.04.81,3,3,0,0,0,3-3,3,3,0,0,0-3-3,3,3,0,0,0-3,3,3.27,3.27,0,0,0,.09.7l-7.05,4.11A2.987,2.987,0,0,0,815-1409a3,3,0,0,0-3,3,3,3,0,0,0,3,3,2.987,2.987,0,0,0,2.04-.81l7.12,4.16a2.823,2.823,0,0,0-.08.65,2.923,2.923,0,0,0,2.92,2.92,2.923,2.923,0,0,0,2.92-2.92A2.923,2.923,0,0,0,827-1401.92Z" transform="translate(-809 1418)"/>
  </g>
</svg>
