<svg id="Tools_Technology_camera_20" data-name="Tools / Technology / camera / 20" xmlns="http://www.w3.org/2000/svg" width="15.5" height="12.75" viewBox="0 0 15.5 12.75">
    <path id="Fill" d="M14.946,12.75H.553A.568.568,0,0,1,0,12.17V2.318a.568.568,0,0,1,.553-.58H4.13L5.076.26A.545.545,0,0,1,5.535,0H9.964a.543.543,0,0,1,.459.26l.947,1.478h3.576a.568.568,0,0,1,.553.58V12.17A.568.568,0,0,1,14.946,12.75ZM1.107,2.9v8.693H14.393V2.9H11.071a.547.547,0,0,1-.46-.26L9.665,1.159H5.834L4.888,2.637a.546.546,0,0,1-.459.26ZM7.75,10.431A3.406,3.406,0,0,1,4.428,6.954,3.406,3.406,0,0,1,7.75,3.477a3.406,3.406,0,0,1,3.321,3.478A3.405,3.405,0,0,1,7.75,10.431Zm0-5.8A2.271,2.271,0,0,0,5.535,6.954,2.27,2.27,0,0,0,7.75,9.272,2.27,2.27,0,0,0,9.963,6.954,2.27,2.27,0,0,0,7.75,4.636Z" transform="translate(0)" fill="#fff"/>
</svg>
