<svg xmlns="http://www.w3.org/2000/svg" xmlns:xlink="http://www.w3.org/1999/xlink" width="33" height="32" viewBox="0 0 33 32">
  <defs>
    <clipPath id="clip-path">
      <rect id="Rectangle_394" data-name="Rectangle 394" width="33" height="32" transform="translate(-0.444)" fill="#eceff1"/>
    </clipPath>
  </defs>
  <g id="google-icon" transform="translate(0.444)" clip-path="url(#clip-path)">
    <g id="search" transform="translate(0 0)">
      <path id="Path_2021" data-name="Path 2021" d="M7.147,114.48l-1.122,4.19-4.1.087A16.152,16.152,0,0,1,1.8,103.7h0l3.652.67L7.056,108a9.622,9.622,0,0,0,.09,6.479Z" transform="translate(0 -94.993)" fill="#fbbb00"/>
      <path id="Path_2022" data-name="Path 2022" d="M211.708,156.132a16.117,16.117,0,0,1-5.748,15.586h0l-4.6-.235-.651-4.065a9.609,9.609,0,0,0,4.135-4.907h-8.622v-6.379h15.487Z" transform="translate(-179.743 -143.021)" fill="#518ef8"/>
      <path id="Path_2023" data-name="Path 2023" d="M47.177,241.266h0a16.129,16.129,0,0,1-24.3-4.933l5.225-4.277a9.589,9.589,0,0,0,13.818,4.91Z" transform="translate(-20.96 -212.57)" fill="#28b446"/>
      <path id="Path_2024" data-name="Path 2024" d="M46.08,3.712,40.857,7.988a9.588,9.588,0,0,0-14.135,5.02l-5.253-4.3h0a16.127,16.127,0,0,1,24.612-5Z" transform="translate(-19.665)" fill="#f14336"/>
    </g>
  </g>
</svg>
