<svg xmlns="http://www.w3.org/2000/svg" width="18.118" height="18.118" viewBox="0 0 18.118 18.118">
  <g id="Group_97" data-name="Group 97" transform="translate(-1183.549 -763)">
    <g id="Library" transform="translate(1180.856 761)">
      <g id="Group_95" data-name="Group 95" transform="translate(2.692 2)">
        <g id="Group_94" data-name="Group 94">
          <path id="Path_2015" data-name="Path 2015" d="M1.812,85.333H0V98.016a1.811,1.811,0,0,0,1.812,1.812H14.495V98.016H1.812Z" transform="translate(0 -81.709)"/>
        </g>
      </g>
    </g>
    <path id="Path_2014" data-name="Path 2014" d="M98.016,0H87.145a1.811,1.811,0,0,0-1.812,1.812V12.683a1.811,1.811,0,0,0,1.812,1.812H98.016a1.811,1.811,0,0,0,1.812-1.812V1.812A1.811,1.811,0,0,0,98.016,0ZM96.2,4.53H93.486V9.512a2.283,2.283,0,1,1-.906-1.8V2.718H96.2Z" transform="translate(1101.839 763)"/>
  </g>
</svg>
