<svg xmlns="http://www.w3.org/2000/svg" xmlns:xlink="http://www.w3.org/1999/xlink" width="550.92" height="504.802" viewBox="0 0 550.92 504.802">
  <defs>
    <clipPath id="clip-path">
      <path id="Path_7893" data-name="Path 7893" d="M120.735,51.1A35.519,35.519,0,1,1,104.416,3.613,35.519,35.519,0,0,1,120.735,51.1Z" transform="translate(-53.286 0.005)" fill="none"/>
    </clipPath>
  </defs>
  <g id="Layer_2" data-name="Layer 2" transform="translate(0 -3.695)">
    <g id="BACKGROUND_2" data-name="BACKGROUND 2" transform="translate(0 3.695)">
      <line id="Line_65" data-name="Line 65" y2="263.792" transform="translate(327.157 234.868)" fill="none" stroke="#fff" stroke-miterlimit="10" stroke-width="1.99"/>
      <line id="Line_66" data-name="Line 66" y2="263.792" transform="translate(517.938 234.868)" fill="none" stroke="#fff" stroke-miterlimit="10" stroke-width="1.99"/>
      <path id="Path_7881" data-name="Path 7881" d="M214.3,236.443s36.615-8.3,42.128,15.661c4.761,20.484-45.041,19.67-45.041,19.67l-109.47.689s-41.251,4.7-61.641-43S.251,57.282.251,57.282-2.693,40.118,11.589,37.643C28.346,34.731,31.667,70.97,31.667,70.97S57.037,224.76,93.872,232.277c5.669,1.159,10.18,5.45,15.974,5.387Z" transform="translate(0 79.924)" fill="#ffeee3"/>
      <path id="Path_7882" data-name="Path 7882" d="M100.438,62.973l34.454-2.38A8.05,8.05,0,0,1,142,63.975L161.516,93.23l-16.444.783-9.4-14.283s-26.717,6.7-36.615,0Z" transform="translate(211.214 129.172)" fill="#f2c09e"/>
      <path id="Path_7883" data-name="Path 7883" d="M81.46,31.1l46.294,85.853,96,3.132V151.6l-101.389,4.479a38.526,38.526,0,0,1-33.64-16.945L42.59,56.251Z" transform="translate(90.81 66.327)" fill="#efc375"/>
      <path id="Path_7884" data-name="Path 7884" d="M107.743,63.425V95L97,95.467V63.08Z" transform="translate(206.822 122.926)" fill="#f7e5da"/>
      <path id="Path_7885" data-name="Path 7885" d="M84.36,146.444l5.45,37.962,27.313-1.723L113.176,143.5Z" transform="translate(179.871 294.395)" fill="#fcc9a7"/>
      <path id="Path_7886" data-name="Path 7886" d="M85.2,157.043a2.788,2.788,0,0,1,4.26-1.441,21.926,21.926,0,0,0,15.912,3.7c7.893-1,10.681-5.231,11.683-8.206a2.85,2.85,0,0,1,3.727-1.817L169.986,168.6a12,12,0,0,1,6.672,6.421h0a4.228,4.228,0,0,1-3.79,5.92l-83.379,1.222a5.732,5.732,0,0,1-5.826-5.951l.626-16.1a2.285,2.285,0,0,1,0-.783Z" transform="translate(178.376 317.906)" fill="#1f252a"/>
      <path id="Path_7887" data-name="Path 7887" d="M60.087,28.75l7.83,12.529a4.134,4.134,0,0,1-1.441,5.137l-3.132,2.224L56.83,38.648Z" transform="translate(121.172 61.317)" fill="#ffeee3"/>
      <path id="Path_7888" data-name="Path 7888" d="M61.154,85.622l-2.474-1.19a16.413,16.413,0,0,1-7.517-21.925L77.6,8.32l29.349,14.345L76.377,83.3C72.994,90.007,67.857,88.754,61.154,85.622Z" transform="translate(105.541 17.756)" fill="#fcc9a7"/>
      <path id="Path_7889" data-name="Path 7889" d="M120.735,51.1A35.519,35.519,0,1,1,104.416,3.613,35.519,35.519,0,0,1,120.735,51.1Z" transform="translate(113.615 0.005)" fill="#fcc9a7"/>
      <path id="Path_7890" data-name="Path 7890" d="M67.561,63.64h0a16.882,16.882,0,0,1-7.736-22.552L74.733,10.55l35.957,17.54-12.215,24.9A23.178,23.178,0,0,1,67.561,63.64Z" transform="translate(123.91 22.511)" fill="#fcc9a7"/>
      <path id="Path_7891" data-name="Path 7891" d="M81,18.44l1.848,13.688A2.819,2.819,0,0,1,78.683,34.7L69.85,32.284Z" transform="translate(148.933 39.334)" fill="#fcc9a7"/>
      <g id="Group_8227" data-name="Group 8227" transform="translate(166.901)" clip-path="url(#clip-path)">
        <path id="Path_7892" data-name="Path 7892" d="M94.557,58.831s12.529.783,14.471-18.386c0,0,21.612,13.782,30.413,8.3,0,0,2.725-54.312-42.19-52.4S48.89,46.709,48.89,46.709l25.057,22.74Z" transform="translate(-62.659 -7.885)" fill="#1c2226"/>
      </g>
      <path id="Path_7894" data-name="Path 7894" d="M76.689,26.064a9.772,9.772,0,1,1-4.479-13.03,9.772,9.772,0,0,1,4.479,13.03Z" transform="translate(123.927 25.665)" fill="#fcc9a7"/>
      <path id="Path_7895" data-name="Path 7895" d="M59.863,14.21l-6.7,15.661s14.659,11.746,22.082-3.383L64.592,23.356Z" transform="translate(113.347 30.315)" fill="#1c2226"/>
      <path id="Path_7896" data-name="Path 7896" d="M68.09,27.725s29.317,22.614,40.718,3.665c9.209-15.128-1.034-25.057-15.661-22.458C86.883,10,83.563,5.8,78.583,2.26Z" transform="translate(145.18 4.835)" fill="#1c2226"/>
      <path id="Path_7897" data-name="Path 7897" d="M140.275,62.583S139.586,48.77,135.2,43.79s-27.72-18.01-27.72-18.01-33.608,9.9-54.249,48.3C37.132,103.991,21.91,179.7,21.91,179.7l97.1,14.063C127.339,137.192,143.031,111.414,140.275,62.583Z" transform="translate(46.716 54.984)" fill="#ffd686"/>
      <path id="Path_7898" data-name="Path 7898" d="M53.366,25.156l-4.009,1.817a2.193,2.193,0,0,0-.564,3.665L74.414,53.346a2.224,2.224,0,0,0,3.383-.532L80.679,47.8a2.193,2.193,0,0,0-.532-2.819L55.653,25.375A2.161,2.161,0,0,0,53.366,25.156Z" transform="translate(102.429 53.165)" fill="#ffeee3"/>
      <path id="Path_7899" data-name="Path 7899" d="M97.05,64.633l34.454-2.38a8.05,8.05,0,0,1,7.11,3.383L156.342,90.88l-16.538,2.1L132.255,81.39s-26.717,6.672-36.615,0Z" transform="translate(203.922 132.711)" fill="#fcc9a7"/>
      <path id="Path_7900" data-name="Path 7900" d="M75.284,33.14l52.182,88.046,98.977,2.725v28.472l-106.807,4.667a28.847,28.847,0,0,1-25.057-12.717L36.32,58.323Z" transform="translate(77.441 70.677)" fill="#ffd686"/>
      <path id="Path_7901" data-name="Path 7901" d="M104.333,65.82V94.292l-10.743.47V65.82Z" transform="translate(199.551 128.768)" fill="#ffeee3"/>
      <path id="Path_7902" data-name="Path 7902" d="M24.8,74.92l190.718,27.657A32.011,32.011,0,0,1,242.8,131.205l14.22,162.466-42.6,2.756L193.942,155.636,74.167,158.769a53.247,53.247,0,0,1-52.9-61.078Z" transform="translate(44.105 159.76)" fill="#54585a"/>
      <rect id="Rectangle_612" data-name="Rectangle 612" width="100.606" height="6.515" transform="translate(306.234 222.37)" fill="#720041"/>
      <path id="Path_7903" data-name="Path 7903" d="M134.09,142.6l32.575-95.062-6.859-1.629-31.886,91.3Z" transform="translate(272.749 86.316)" fill="#720041"/>
      <path id="Path_7904" data-name="Path 7904" d="M67.725,38.532A20.109,20.109,0,0,1,58.673,21.9,20.422,20.422,0,0,0,64.53,44.89Z" transform="translate(122.148 46.711)" fill="#f2c09e"/>
      <path id="Path_7905" data-name="Path 7905" d="M15.625,319.964a3.383,3.383,0,0,0,3.132-2.568l49.8-196.356a36.615,36.615,0,0,1,70.693-1c17.415,61.359,57.977,195.229,58.384,196.576a3.389,3.389,0,1,0,6.484-1.973c-.407-1.347-40.938-135.154-58.321-196.45a43.412,43.412,0,0,0-83.817,1.19l-49.8,196.356a3.414,3.414,0,0,0,2.474,4.134,3.6,3.6,0,0,0,.971.094Z" transform="translate(25.752 184.835)" fill="#fff"/>
      <line id="Line_67" data-name="Line 67" x1="29.944" y1="44.289" transform="translate(141.951 170.752)" fill="none" stroke="#efc375" stroke-linecap="round" stroke-linejoin="round" stroke-width="0.78"/>
      <rect id="Rectangle_613" data-name="Rectangle 613" width="260.629" height="11.746" transform="translate(290.291 228.916)" fill="#ffeee3"/>
      <line id="Line_68" data-name="Line 68" x2="190.781" transform="translate(327.157 269.165)" fill="none" stroke="#fff" stroke-miterlimit="10" stroke-width="1.99"/>
      <line id="Line_69" data-name="Line 69" x1="28.659" y1="46.168" transform="translate(160.775 117.411)" fill="none" stroke="#efc375" stroke-linecap="round" stroke-linejoin="round" stroke-width="0.78"/>
    </g>
  </g>
</svg>
