<svg xmlns="http://www.w3.org/2000/svg" width="22" height="30" viewBox="0 0 22 30">
  <g id="Planning_Travel_location_32" data-name="Planning / Travel / location / 32" opacity="0.64">
    <path id="Fill" d="M16,32h0L7.2,19.139A10.58,10.58,0,0,1,5,12.71,10.86,10.86,0,0,1,15.857,2h.286A10.86,10.86,0,0,1,27,12.71a10.576,10.576,0,0,1-2.2,6.43L16,32ZM15.876,4A8.926,8.926,0,0,0,7,12.71,8.5,8.5,0,0,0,8.851,18L16,28.46l7.21-10.54A8.508,8.508,0,0,0,25,12.71,8.925,8.925,0,0,0,16.124,4h-.248ZM16,18a5,5,0,1,1,5-5A5.006,5.006,0,0,1,16,18Zm0-8a3,3,0,1,0,3,3A3,3,0,0,0,16,10Z" transform="translate(-5 -1.999)" fill="#fff"/>
  </g>
</svg>
