<svg xmlns="http://www.w3.org/2000/svg" width="19.007" height="19" viewBox="0 0 19.007 19">
  <path id="repeat-now" d="M19.007,4.943v10.1a2.23,2.23,0,0,1-2.227,2.227H9.243V15.782h7.536a.743.743,0,0,0,.742-.742V4.943a.743.743,0,0,0-.742-.742H14.1l1.2,1.2-1.05,1.05L11.276,3.475,14.252.5,15.3,1.55,14.137,2.715h2.643a2.23,2.23,0,0,1,2.227,2.227Zm-8.353,8.278V6.762H7.684V8.246H9.169v4.974ZM3.707,14.6l1.183,1.183H2.227a.743.743,0,0,1-.742-.742V4.943A.743.743,0,0,1,2.227,4.2h7.61V2.715H2.227A2.23,2.23,0,0,0,0,4.943v10.1a2.23,2.23,0,0,0,2.227,2.227H4.889L3.707,18.45l1.05,1.05,2.975-2.975L4.757,13.55Zm0,0" transform="translate(0 -0.5)" fill="#fff"/>
</svg>
