<svg xmlns="http://www.w3.org/2000/svg" width="9.006" height="8.655" viewBox="0 0 9.006 8.655">
  <g id="Union_12" data-name="Union 12">
    <path d="M 8.116071701049805 7.933012008666992 L 5.527599811553955 5.654990673065186 L 5.208079814910889 5.373790740966797 L 4.879479885101318 5.644320487976074 C 4.400539875030518 6.038610458374023 3.825259685516357 6.247020721435547 3.215819597244263 6.247020721435547 C 1.718309640884399 6.247020721435547 0.4999997019767761 4.958110332489014 0.4999997019767761 3.373820543289185 C 0.4999997019767761 1.789190530776978 1.718309640884399 0.500000536441803 3.215819597244263 0.500000536441803 C 4.713059902191162 0.500000536441803 5.931149482727051 1.789190530776978 5.931149482727051 3.373820543289185 C 5.931149482727051 3.863540649414063 5.813019752502441 4.346260547637939 5.589529514312744 4.76978063583374 L 5.405689716339111 5.118180751800537 L 5.701379776000977 5.378450393676758 L 8.317485809326172 7.681164741516113 L 8.116071701049805 7.933012008666992 Z" stroke="none"/>
    <path d="M 3.215819597244263 5.747020721435547 C 3.707929611206055 5.747020721435547 4.173329830169678 5.578020572662354 4.561679840087891 5.25830078125 L 4.923643589019775 4.960307121276855 L 5.147319793701172 4.536430358886719 C 5.332999706268311 4.184560775756836 5.431149482727051 3.782530546188354 5.431149482727051 3.373820543289185 C 5.431149482727051 2.064890623092651 4.437359809875488 1.000000596046448 3.215819597244263 1.000000596046448 C 1.994009733200073 1.000000596046448 0.9999997019767761 2.064890623092651 0.9999997019767761 3.373820543289185 C 0.9999997019767761 4.682410717010498 1.994009733200073 5.747020721435547 3.215819597244263 5.747020721435547 M 8.17919921875 8.654620170593262 L 5.197269916534424 6.030330657958984 C 4.651859760284424 6.479350566864014 3.963869571685791 6.747020721435547 3.215819597244263 6.747020721435547 C 1.439939737319946 6.747020721435547 -3.12499992105586e-07 5.236780643463135 -3.12499992105586e-07 3.373820543289185 C -3.12499992105586e-07 1.51024055480957 1.439939737319946 5.621337777483859e-07 3.215819597244263 5.621337777483859e-07 C 4.991699695587158 5.621337777483859e-07 6.431149482727051 1.51024055480957 6.431149482727051 3.373820543289185 C 6.431149482727051 3.964750528335571 6.286619663238525 4.520120620727539 6.031739711761475 5.003130435943604 L 9.005859375 7.620970726013184 L 8.17919921875 8.654620170593262 Z" stroke="none" fill="#fff"/>
  </g>
</svg>
