<svg xmlns="http://www.w3.org/2000/svg" width="28.005" height="25.656" viewBox="0 0 28.005 25.656">
  <defs>
    <style>
      .cls-1 {
        fill: #0e044a;
      }

      .cls-2, .cls-3 {
        stroke: none;
      }

      .cls-3 {
        fill: #fff;
      }
    </style>
  </defs>
  <g id="Union_2" data-name="Union 2" class="cls-1">
    <path class="cls-2" d="M 25.31130599975586 24.24677467346191 L 16.80640602111816 17.10942840576172 L 16.18514633178711 16.58805656433105 L 15.54675579071045 17.08832740783691 C 13.95056533813477 18.33918762207031 12.03252601623535 19.00035667419434 9.999995231628418 19.00035667419434 C 5.0373854637146 19.00035667419434 1.000005602836609 14.96289730072021 1.000005602836609 10.00017738342285 C 1.000005602836609 5.037457466125488 5.0373854637146 0.9999974966049194 9.999995231628418 0.9999974966049194 C 14.96288585662842 0.9999974966049194 19.00048637390137 5.037457466125488 19.00048637390137 10.00017738342285 C 19.00048637390137 11.52166748046875 18.61396598815918 13.02480792999268 17.88271522521973 14.34708786010742 L 17.48420524597168 15.06769752502441 L 18.11498641967773 15.59704780578613 L 26.59662437438965 22.71479034423828 L 25.31130599975586 24.24677467346191 Z"/>
    <path class="cls-3" d="M 9.999995231628418 18.00035667419434 C 11.80672550201416 18.00035667419434 13.51147556304932 17.41280746459961 14.92994594573975 16.30122756958008 L 16.20670509338379 15.30068778991699 L 16.21075248718262 15.30408382415771 L 17.00761604309082 13.8631477355957 C 17.65715599060059 12.68861770629883 18.00048637390137 11.35281753540039 18.00048637390137 10.00017738342285 C 18.00048637390137 5.588867664337158 14.41148567199707 1.999997496604919 9.999995231628418 1.999997496604919 C 5.588785648345947 1.999997496604919 2.000005483627319 5.588867664337158 2.000005483627319 10.00017738342285 C 2.000005483627319 14.4114875793457 5.588785648345947 18.00035667419434 9.999995231628418 18.00035667419434 M 25.4345760345459 25.65569686889648 L 16.16357612609863 17.87543678283691 C 14.46484565734863 19.2066478729248 12.3251953125 20.00035667419434 9.999995231628418 20.00035667419434 C 4.477535724639893 20.00035667419434 5.54687494513928e-06 15.52270793914795 5.54687494513928e-06 10.00017738342285 C 5.54687494513928e-06 4.477647304534912 4.477535724639893 -2.519225972719141e-06 9.999995231628418 -2.519225972719141e-06 C 15.52246570587158 -2.519225972719141e-06 20.00048637390137 4.477647304534912 20.00048637390137 10.00017738342285 C 20.00048637390137 11.75225734710693 19.5498046875 13.39891719818115 18.75781631469727 14.8310375213623 L 28.00537490844727 22.59153747558594 L 25.4345760345459 25.65569686889648 Z"/>
  </g>
</svg>
