<svg id="Tools_Technology_cloud--upload_32" data-name="Tools / Technology / cloud--upload / 32" xmlns="http://www.w3.org/2000/svg" width="11.322" height="10.701" viewBox="0 0 11.322 10.701">
  <path id="Fill" d="M6.066,10.7H5.255V5.873L4.2,6.9l-.572-.56L5.661,4.353,7.688,6.337l-.572.56L6.066,5.873V10.7ZM2.822,7.924h-.2A2.609,2.609,0,0,1,.014,5.6,2.581,2.581,0,0,1,2.092,2.822,3.571,3.571,0,0,1,3.366.794a3.713,3.713,0,0,1,4.589,0A3.572,3.572,0,0,1,9.23,2.822,2.582,2.582,0,0,1,11.308,5.6,2.61,2.61,0,0,1,8.7,7.924H8.5V7.13h.277A1.8,1.8,0,0,0,10.6,5.417a1.752,1.752,0,0,0-.483-1.283A1.832,1.832,0,0,0,8.848,3.56H8.5l-.041-.325a2.847,2.847,0,0,0-5.629,0l-.008.325H2.473a1.786,1.786,0,1,0,.071,3.572h.278v.793Z" fill="rgba(114,114,114,0.85)"/>
</svg>
