<svg xmlns="http://www.w3.org/2000/svg" width="40" height="40" viewBox="0 0 40 40">
  <g id="Group_8162" data-name="Group 8162" transform="translate(-1045 -663)">
    <g id="Icon_-_Twitter" data-name="Icon - Twitter" transform="translate(1044.553 663)">
      <rect id="background" width="40" height="40" rx="20" transform="translate(0.447)" fill="#656565" opacity="0.65"/>
    </g>
    <g id="Brand_Social_logo--youtube_24" data-name="Brand / Social / logo--youtube / 24" transform="translate(1055.5 675.65)">
      <path id="Fill" d="M10.5,14.7c-.066,0-6.589-.005-8.2-.442A2.638,2.638,0,0,1,.443,12.4,27.1,27.1,0,0,1,0,7.35,27.121,27.121,0,0,1,.443,2.3,2.635,2.635,0,0,1,2.3.443C3.912.005,10.435,0,10.5,0s6.589.005,8.205.443A2.631,2.631,0,0,1,20.558,2.3,27.122,27.122,0,0,1,21,7.35a27.1,27.1,0,0,1-.443,5.054,2.635,2.635,0,0,1-1.852,1.853C17.089,14.695,10.566,14.7,10.5,14.7ZM8.4,4.2v6.3l5.452-3.15Z" transform="translate(0)" fill="#fff"/>
    </g>
  </g>
</svg>
